<svg width="486.99999999999994" height="198" xmlns="http://www.w3.org/2000/svg">
 <defs>
  <filter height="200%" width="200%" y="-50%" x="-50%" id="svg_21_blur">
   <feGaussianBlur stdDeviation="0" in="SourceGraphic"/>
  </filter>
 </defs>
 <g>
  <title>background</title>
  <rect fill="none" id="canvas_background" height="200" width="489" y="-1" x="-1"/>
 </g>
 <g>
  <title>Layer 1</title>
  <ellipse ry="81.67345" rx="239.130441" id="svg_20" cy="101.761366" cx="239.688624" stroke-width="0.3376" fill="none"/>
  <g transform="rotate(9.71570110321045 352.7492980957032,108.94812011718736) " stroke="null" id="svg_1">
   <polygon stroke="#000000" id="svg_3" points="305.52880859375,92.99755096435547 311.308837890625,97.23552703857422 310.7668151855469,97.48052215576172 310.206787109375,97.73149871826172 309.63079833984375,97.99053192138672 309.0357971191406,98.25554656982422 308.4218444824219,98.52953338623047 307.78582763671875,98.81157684326172 307.1287841796875,99.10259246826172 306.44781494140625,99.40056610107422 305.74383544921875,99.71050262451172 305.0138244628906,100.03057098388672 304.2587890625,100.36052703857422 303.47479248046875,100.70159149169922 302.66278076171875,101.05455780029297 301.8218078613281,101.41863250732422 300.9488220214844,101.79460906982422 300.0438232421875,102.18450164794922 294.2637939453125,97.94554901123047 295.1688232421875,97.55754852294922 296.04180908203125,97.17949676513672 296.8828125,96.81548309326172 297.69482421875,96.46257781982422 298.47882080078125,96.12248992919922 299.23480224609375,95.79253387451172 299.96380615234375,95.47258758544922 300.66778564453125,95.16252899169922 301.3477783203125,94.86357879638672 302.0058288574219,94.57262420654297 302.6408386230469,94.29155731201172 303.25579833984375,94.01763153076172 303.850830078125,93.75157928466797 304.42779541015625,93.49358367919922 304.98681640625,93.24254608154297 305.52880859375,92.99755096435547 " stroke-miterlimit="2.6131" stroke-linejoin="bevel" stroke-width="0.3376" fill="#ED1C24" clip-rule="evenodd" fill-rule="evenodd"/>
   <polygon stroke="#000000" id="svg_4" points="346.76080322265625,61.41161346435547 352.54083251953125,65.64958953857422 353.0438232421875,66.21050262451172 353.44378662109375,66.89751434326172 353.73883056640625,67.71050262451172 353.9288330078125,68.65154266357422 354.01483154296875,69.71959686279297 353.99481201171875,70.91655731201172 353.87078857421875,72.24358367919922 353.63983154296875,73.69951629638672 353.30279541015625,75.28655242919922 353.1378173828125,76.00054168701172 352.9828186035156,76.70952606201172 352.8348388671875,77.41558074951172 352.6907958984375,78.11553192138672 352.5498046875,78.81352996826172 352.4098205566406,79.50859832763672 352.26983642578125,80.20055389404297 352.12579345703125,80.89055633544922 351.97979736328125,81.57952117919922 351.8248291015625,82.26757049560547 351.662841796875,82.95659637451172 351.48980712890625,83.64354705810547 351.3057861328125,84.33354949951172 351.1068115234375,85.02251434326172 350.89178466796875,85.71453094482422 350.6588134765625,86.40850067138672 350.476806640625,86.88060760498047 350.26678466796875,87.32854461669922 350.02978515625,87.75249481201172 349.7668151855469,88.15154266357422 349.47979736328125,88.52849578857422 349.1697998046875,88.88457489013672 348.8368225097656,89.21758270263672 348.4818115234375,89.52953338623047 348.1087951660156,89.82158660888672 347.7158203125,90.09258270263672 347.3038024902344,90.34557342529297 346.87579345703125,90.57854461669922 346.43182373046875,90.79363250732422 345.97283935546875,90.99156951904297 345.5018310546875,91.17162322998047 345.01678466796875,91.33458709716797 344.52178955078125,91.48455047607422 344.01580810546875,91.61663055419922 343.5018310546875,91.73552703857422 342.97882080078125,91.83953094482422 342.44879150390625,91.93053436279297 341.912841796875,92.00762176513672 341.3717956542969,92.07158660888672 340.82781982421875,92.12554168701172 340.28179931640625,92.16753387451172 339.7328186035156,92.19860076904297 339.184814453125,92.21953582763672 338.63580322265625,92.23058319091797 338.0908203125,92.23357391357422 337.548828125,92.22759246826172 337.0088195800781,92.21355438232422 336.47479248046875,92.19158172607422 330.69482421875,87.95354461669922 331.2287902832031,87.97551727294922 331.767822265625,87.98857879638672 332.310791015625,87.99456024169922 332.8568115234375,87.99254608154297 333.40478515625,87.98052215576172 333.95281982421875,87.95952606201172 334.5018310546875,87.92949676513672 335.04779052734375,87.88652801513672 335.59283447265625,87.83361053466797 336.1328125,87.76958465576172 336.6688232421875,87.69158172607422 337.19879150390625,87.60051727294922 337.7218017578125,87.49748992919922 338.23583984375,87.37859344482422 338.7418212890625,87.24651336669922 339.23681640625,87.09648895263672 339.7218017578125,86.93352508544922 340.19378662109375,86.75249481201172 340.65283203125,86.55553436279297 341.0948181152344,86.33959197998047 341.5238342285156,86.10649871826172 341.934814453125,85.85454559326172 342.32781982421875,85.58361053466797 342.70184326171875,85.29155731201172 343.05682373046875,84.97954559326172 343.3887939453125,84.64653778076172 343.6998291015625,84.29051971435547 343.98681640625,83.91362762451172 344.24981689453125,83.51457977294922 344.4867858886719,83.08959197998047 344.69781494140625,82.64257049560547 344.87982177734375,82.17052459716797 345.11279296875,81.47649383544922 345.32684326171875,80.78459930419922 345.52484130859375,80.09551239013672 345.7098388671875,79.40557098388672 345.8828125,78.71758270263672 346.0447998046875,78.02953338623047 346.1998291015625,77.34154510498047 346.3457946777344,76.65154266357422 346.48980712890625,75.96154022216797 346.6297912597656,75.27056121826172 346.76983642578125,74.57555389404297 346.91082763671875,73.87749481201172 347.0538024902344,73.17656707763672 347.20281982421875,72.47154998779297 347.35882568359375,71.76262664794922 347.5228271484375,71.04759979248047 347.85980224609375,69.46056365966797 348.0908203125,68.00457000732422 348.2158203125,66.67858123779297 348.23480224609375,65.48052215576172 348.1488037109375,64.41362762451172 347.95782470703125,63.47258758544922 347.662841796875,62.65953826904297 347.2628173828125,61.97258758544922 346.76080322265625,61.41161346435547 " stroke-miterlimit="2.6131" stroke-linejoin="bevel" stroke-width="0.3376" fill="#ED1C24" clip-rule="evenodd" fill-rule="evenodd"/>
   <polygon stroke="#000000" id="svg_5" points="330.69482421875,87.95354461669922 336.47479248046875,92.19158172607422 336.2608337402344,95.33562469482422 335.9918212890625,98.35955047607422 335.664794921875,101.26653289794922 335.28179931640625,104.05754852294922 334.8408203125,106.73448944091797 334.33984375,109.29851531982422 333.77978515625,111.75054168701172 333.1588134765625,114.09259033203125 332.47882080078125,116.3236083984375 331.7367858886719,118.4486083984375 330.93182373046875,120.46649169921875 330.0628356933594,122.37956237792969 329.1318359375,124.18852233886719 328.1347961425781,125.89451599121094 327.07379150390625,127.49858093261719 325.9458312988281,129.0045623779297 324.7518310546875,130.4095916748047 323.48980712890625,131.71861267089844 322.1607971191406,132.93052673339844 320.7618408203125,134.0485076904297 319.2938232421875,135.0725555419922 317.75579833984375,136.0045623779297 316.14678955078125,136.8455047607422 314.46484375,137.5975799560547 312.7117919921875,138.2605438232422 310.88482666015625,138.8365936279297 308.9848327636719,139.3265838623047 307.0088195800781,139.73252868652344 304.95782470703125,140.0555877685547 302.8318176269531,140.29759216308594 300.6278076171875,140.4585418701172 298.3457946777344,140.5405731201172 292.56683349609375,136.3025360107422 294.8468322753906,136.2205047607422 297.05181884765625,136.05955505371094 299.17779541015625,135.8175506591797 301.22882080078125,135.4945526123047 303.204833984375,135.0885467529297 305.10479736328125,134.5985565185547 306.93182373046875,134.0215301513672 308.683837890625,133.3585662841797 310.3658447265625,132.6066131591797 311.975830078125,131.7665252685547 313.5137939453125,130.8345184326172 314.9818115234375,129.8105926513672 316.38079833984375,128.6915740966797 317.7098388671875,127.48051452636719 318.9718017578125,126.17161560058594 320.1648254394531,124.76652526855469 321.29278564453125,123.26054382324219 322.35479736328125,121.65556335449219 323.351806640625,119.94952392578125 324.2828369140625,118.1416015625 325.15179443359375,116.2286376953125 325.9568176269531,114.21051025390625 326.6988220214844,112.08556365966797 327.3787841796875,109.85454559326172 327.99981689453125,107.51262664794922 328.559814453125,105.06060028076172 329.059814453125,102.49748992919922 329.50079345703125,99.81951141357422 329.88580322265625,97.02855682373047 330.2117919921875,94.12151336669922 330.4808349609375,91.09758758544922 330.69482421875,87.95354461669922 " stroke-miterlimit="2.6131" stroke-linejoin="bevel" stroke-width="0.3376" fill="#ED1C24" clip-rule="evenodd" fill-rule="evenodd"/>
   <polygon stroke="#000000" id="svg_6" points="413.4988708496094,101.21154022216797 419.27880859375,105.45055389404297 418.56683349609375,104.88848114013672 417.892822265625,104.28154754638672 417.2587890625,103.63152313232422 416.66778564453125,102.93852996826172 410.8877868652344,98.70049285888672 411.47784423828125,99.39348602294922 412.11279296875,100.04357147216797 412.78778076171875,100.64958953857422 413.4988708496094,101.21154022216797 " stroke-miterlimit="2.6131" stroke-linejoin="bevel" stroke-width="0.3376" fill="#ED1C24" clip-rule="evenodd" fill-rule="evenodd"/>
   <polygon stroke="#000000" id="svg_7" points="410.8877868652344,98.70049285888672 416.66778564453125,102.93852996826172 417.3468017578125,102.33055877685547 418.05877685546875,101.74248504638672 418.7978210449219,101.17656707763672 419.561767578125,100.63457489013672 420.34478759765625,100.11858367919922 421.14776611328125,99.62859344482422 421.96380615234375,99.16753387451172 422.79083251953125,98.73650360107422 423.6238708496094,98.33757781982422 424.4617919921875,97.97161102294922 425.29876708984375,97.64055633544922 426.1337890625,97.34459686279297 426.9617919921875,97.08757781982422 427.7787780761719,96.86962127685547 428.5837707519531,96.69255828857422 429.37176513671875,96.55754852294922 430.13677978515625,96.46648406982422 430.88079833984375,96.42162322998047 431.59576416015625,96.42357635498047 432.2817687988281,96.47356414794922 432.9317321777344,96.57457733154297 433.5458068847656,96.72649383544922 434.1168212890625,96.93151092529297 434.64483642578125,97.19158172607422 435.12481689453125,97.50859832763672 429.34478759765625,93.27056121826172 428.86480712890625,92.95354461669922 428.33782958984375,92.69359588623047 427.76483154296875,92.48857879638672 427.15179443359375,92.33562469482422 426.5018310546875,92.23552703857422 425.8158264160156,92.18553924560547 425.09979248046875,92.18352508544922 424.3568115234375,92.22863006591797 423.591796875,92.31853485107422 422.80279541015625,92.45452117919922 421.99884033203125,92.63152313232422 421.1807861328125,92.84954071044922 420.353759765625,93.10649871826172 419.5188293457031,93.40258026123047 418.6807861328125,93.73357391357422 417.8438415527344,94.09954071044922 417.0108337402344,94.49748992919922 416.18280029296875,94.92949676513672 415.3677978515625,95.39055633544922 414.56475830078125,95.87957000732422 413.78179931640625,96.39653778076172 413.01678466796875,96.93852996826172 412.27880859375,97.50359344482422 411.56781005859375,98.09154510498047 410.8877868652344,98.70049285888672 " stroke-miterlimit="2.6131" stroke-linejoin="bevel" stroke-width="0.3376" fill="#ED1C24" clip-rule="evenodd" fill-rule="evenodd"/>
   <polygon stroke="#000000" id="svg_8" points="371.64483642578125,56.68748474121094 377.42584228515625,60.92552947998047 377.71783447265625,61.15850067138672 377.97882080078125,61.42162322998047 378.21484375,61.71160125732422 378.4218444824219,62.02953338623047 378.601806640625,62.37456512451172 378.7588195800781,62.74358367919922 378.88983154296875,63.13652801513672 378.9978332519531,63.55449676513672 379.0848083496094,63.99358367919922 379.1478271484375,64.45555877685547 379.19183349609375,64.93755340576172 379.2158203125,65.43962860107422 379.2198181152344,65.95952606201172 379.2077941894531,66.49962615966797 379.17779541015625,67.05352020263672 379.1318359375,67.62554168701172 379.07080078125,68.21257781982422 378.99578857421875,68.81352996826172 378.9078369140625,69.42754364013672 378.8057861328125,70.05455780029297 378.69482421875,70.69255828857422 378.57183837890625,71.34154510498047 378.4398193359375,71.99852752685547 378.298828125,72.66655731201172 378.15081787109375,73.34062957763672 377.99578857421875,74.02251434326172 377.8348388671875,74.70861053466797 372.0548095703125,70.46959686279297 372.2158203125,69.78350067138672 372.37078857421875,69.10259246826172 372.5188293457031,68.42754364013672 372.6597900390625,67.76049041748047 372.79180908203125,67.10356903076172 372.914794921875,66.45452117919922 373.02581787109375,65.81658172607422 373.1278076171875,65.18950653076172 373.2158203125,64.57457733154297 373.29083251953125,63.97454071044922 373.3507995605469,63.38750457763672 373.3977966308594,62.81548309326172 373.42779541015625,62.26055145263672 373.4398193359375,61.72148895263672 373.4348449707031,61.20159149169922 373.412841796875,60.69853973388672 373.3677978515625,60.21758270263672 373.3038024902344,59.75553894042969 373.21881103515625,59.31548309326172 373.11083984375,58.89861297607422 372.97784423828125,58.50553894042969 372.82183837890625,58.13554382324219 372.6408386230469,57.79154968261719 372.433837890625,57.47355651855469 372.19879150390625,57.18352508544922 371.93682861328125,56.92051696777344 371.64483642578125,56.68748474121094 " stroke-miterlimit="2.6131" stroke-linejoin="bevel" stroke-width="0.3376" fill="#ED1C24" clip-rule="evenodd" fill-rule="evenodd"/>
   <polygon stroke="#000000" id="svg_9" points="403.8717956542969,50.60050964355469 409.65179443359375,54.83952331542969 409.955810546875,55.10149383544922 410.1508483886719,55.42161560058594 410.2418518066406,55.79363250732422 410.226806640625,56.21952819824219 410.10980224609375,56.69157409667969 409.89080810546875,57.20951843261719 409.57379150390625,57.76847839355469 409.1578369140625,58.36753845214844 408.64483642578125,59.00151062011719 408.0378112792969,59.66947937011719 407.33782958984375,60.36650848388672 406.830810546875,60.85552215576172 406.331787109375,61.34258270263672 405.84283447265625,61.83055877685547 405.35980224609375,62.31853485107422 404.8847961425781,62.80754852294922 404.4168395996094,63.29662322998047 403.9538269042969,63.78752899169922 403.4988708496094,64.27855682373047 403.04681396484375,64.77251434326172 402.59979248046875,65.26653289794922 402.1588134765625,65.76262664794922 401.71978759765625,66.25951385498047 401.2847900390625,66.75859832763672 400.85284423828125,67.25951385498047 400.42376708984375,67.76348114013672 399.99578857421875,68.26952362060547 399.56878662109375,68.77849578857422 399.142822265625,69.28862762451172 398.71783447265625,69.80358123779297 398.29278564453125,70.31853485107422 397.8658142089844,70.83953094482422 397.4388427734375,71.36260223388672 397.0108337402344,71.88951873779297 396.579833984375,72.41960906982422 396.14678955078125,72.95452117919922 395.7108154296875,73.49156951904297 395.27081298828125,74.03362274169922 394.82781982421875,74.57952117919922 394.3797912597656,75.13054656982422 393.92681884765625,75.68657684326172 393.4678039550781,76.24553680419922 393.0038146972656,76.81060028076172 387.22283935546875,72.57262420654297 387.68682861328125,72.00762176513672 388.14581298828125,71.44762420654297 388.59881591796875,70.89257049560547 389.04779052734375,70.34154510498047 389.4908447265625,69.79558563232422 389.9298095703125,69.25359344482422 390.3668212890625,68.71550750732422 390.7998352050781,68.18151092529297 391.22979736328125,67.65056610107422 391.6588134765625,67.12456512451172 392.0858154296875,66.60149383544922 392.5118408203125,66.08049774169922 392.93682861328125,65.56456756591797 393.3628234863281,65.05059051513672 393.788818359375,64.53954315185547 394.2158203125,64.03057098388672 394.642822265625,63.52458953857422 395.07281494140625,63.02153778076172 395.5047912597656,62.52056121826172 395.9398193359375,62.02056121826172 396.3787841796875,61.52355194091797 396.81982421875,61.02751922607422 397.2658386230469,60.53350067138672 397.7188415527344,60.04058074951172 398.1748046875,59.54948425292969 398.63580322265625,59.05851745605469 399.10382080078125,58.56852722167969 399.57977294921875,58.07951354980469 400.06182861328125,57.59147644042969 400.55279541015625,57.10356140136719 401.05084228515625,56.61663055419922 401.55682373046875,56.12858581542969 402.2578125,55.43156433105469 402.8658142089844,54.76348114013672 403.3778076171875,54.12956237792969 403.79376220703125,53.53056335449219 404.11083984375,52.97050476074219 404.329833984375,52.45353698730469 404.44683837890625,51.98052215576172 404.4617919921875,51.55552673339844 404.37078857421875,51.18254089355469 404.17584228515625,50.86357116699219 403.8717956542969,50.60050964355469 " stroke-miterlimit="2.6131" stroke-linejoin="bevel" stroke-width="0.3376" fill="#ED1C24" clip-rule="evenodd" fill-rule="evenodd"/>
   <polygon stroke="#000000" id="svg_10" points="387.22283935546875,72.57262420654297 393.0038146972656,76.81060028076172 393.12982177734375,77.98052215576172 393.2807922363281,79.12151336669922 393.454833984375,80.23155975341797 393.65283203125,81.31255340576172 393.8738098144531,82.36455535888672 394.1178283691406,83.38652801513672 394.38580322265625,84.38054656982422 394.67584228515625,85.34557342529297 394.98681640625,86.28362274169922 395.32183837890625,87.19255828857422 395.67779541015625,88.07451629638672 396.05682373046875,88.92852020263672 396.4568176269531,89.75554656982422 396.8787841796875,90.55553436279297 397.32183837890625,91.32854461669922 397.78680419921875,92.07451629638672 398.27081298828125,92.79558563232422 398.7778625488281,93.49053192138672 399.30279541015625,94.15953826904297 399.8508605957031,94.80162811279297 400.41778564453125,95.42052459716797 401.0058288574219,96.01262664794922 401.61175537109375,96.58159637451172 402.23883056640625,97.12456512451172 402.8847961425781,97.64458465576172 397.1037902832031,93.40557098388672 396.4588317871094,92.88549041748047 395.8318176269531,92.34258270263672 395.22479248046875,91.77458953857422 394.6368408203125,91.18151092529297 394.07080078125,90.56352996826172 393.5238342285156,89.92052459716797 392.9978332519531,89.25151824951172 392.4908447265625,88.55754852294922 392.0068359375,87.83660125732422 391.54180908203125,87.09050750732422 391.09783935546875,86.31658172607422 390.67681884765625,85.51757049560547 390.27679443359375,84.68950653076172 389.8978271484375,83.83660125732422 389.54180908203125,82.95452117919922 389.206787109375,82.04558563232422 388.89483642578125,81.10649871826172 388.6048278808594,80.14257049560547 388.33880615234375,79.14751434326172 388.09381103515625,78.12554168701172 387.872802734375,77.07360076904297 387.6748046875,75.99358367919922 387.50079345703125,74.88262176513672 387.3487854003906,73.74248504638672 387.22283935546875,72.57262420654297 " stroke-miterlimit="2.6131" stroke-linejoin="bevel" stroke-width="0.3376" fill="#ED1C24" clip-rule="evenodd" fill-rule="evenodd"/>
   <polygon stroke="#000000" id="svg_11" points="432.21978759765625,88.56352996826172 437.99884033203125,92.80162811279297 438.84576416015625,93.54253387451172 439.5887756347656,94.39849090576172 440.2158203125,95.36858367919922 440.71978759765625,96.45555877685547 441.091796875,97.65953826904297 441.3247375488281,98.98259735107422 441.4088134765625,100.42559051513672 441.3367614746094,101.99156951904297 441.09881591796875,103.67949676513672 440.6487731933594,105.76049041748047 440.09783935546875,107.71050262451172 439.44683837890625,109.53154754638672 438.70184326171875,111.22759246826172 437.86578369140625,112.79753875732422 436.94281005859375,114.24853515625 435.93780517578125,115.57853698730469 434.85479736328125,116.79461669921875 433.69580078125,117.89556884765625 432.4667663574219,118.88458251953125 431.17083740234375,119.7645263671875 429.81182861328125,120.53955078125 428.393798828125,121.20855712890625 426.92181396484375,121.77555847167969 425.3988342285156,122.24359130859375 423.829833984375,122.61454772949219 422.216796875,122.89154052734375 420.56475830078125,123.0755615234375 418.8787841796875,123.16949462890625 417.1618347167969,123.17657470703125 415.41778564453125,123.09954833984375 413.65179443359375,122.93853759765625 411.86676025390625,122.69854736328125 410.06683349609375,122.381591796875 408.25579833984375,121.98663330078125 406.436767578125,121.52252197265625 404.6168212890625,120.98455810546875 402.7978210449219,120.381591796875 400.9828186035156,119.71160888671875 399.17779541015625,118.97955322265625 397.38580322265625,118.1865234375 395.6117858886719,117.3345947265625 389.8318176269531,113.09648895263672 391.6058349609375,113.94757080078125 393.3977966308594,114.7406005859375 395.20281982421875,115.47357177734375 397.0177917480469,116.1435546875 398.8368225097656,116.74748229980469 400.65777587890625,117.28363037109375 402.47479248046875,117.74858093261719 404.28680419921875,118.1435546875 406.0867919921875,118.4605712890625 407.8717956542969,118.70050048828125 409.6368408203125,118.860595703125 411.3828125,118.93853759765625 413.09881591796875,118.9315185546875 414.7847900390625,118.83660888671875 416.435791015625,118.65251159667969 418.0498046875,118.37652587890625 419.61883544921875,118.00555419921875 421.14080810546875,117.53753662109375 422.6138610839844,116.96954345703125 424.03179931640625,116.30058288574219 425.38983154296875,115.52655029296875 426.6867370605469,114.64654541015625 427.91583251953125,113.65654754638672 429.07476806640625,112.55651092529297 430.1588134765625,111.34062957763672 431.1637878417969,110.01055145263672 432.08575439453125,108.55956268310547 432.92181396484375,106.98857879638672 433.66680908203125,105.29363250732422 434.3177795410156,103.47258758544922 434.86981201171875,101.52251434326172 435.31878662109375,99.44048309326172 435.5557556152344,97.75249481201172 435.6287841796875,96.18755340576172 435.5447692871094,94.74456024169922 435.31182861328125,93.42052459716797 434.93878173828125,92.21648406982422 434.434814453125,91.13054656982422 433.80682373046875,90.16051483154297 433.06683349609375,89.30455780029297 432.21978759765625,88.56352996826172 " stroke-miterlimit="2.6131" stroke-linejoin="bevel" stroke-width="0.3376" fill="#ED1C24" clip-rule="evenodd" fill-rule="evenodd"/>
   <polygon stroke="#000000" id="svg_16" points="389.8318176269531,113.09648895263672 395.6117858886719,117.3345947265625 392.54278564453125,120.029541015625 389.47283935546875,122.70458984375 386.4007873535156,125.35258483886719 383.32684326171875,127.96952819824219 380.2488098144531,130.54759216308594 377.1688232421875,133.0835418701172 374.0848083496094,135.56956481933594 370.996826171875,138.0015106201172 367.90380859375,140.37351989746094 364.80682373046875,142.6794891357422 361.7058410644531,144.9136199951172 358.59783935546875,147.0715789794922 355.48583984375,149.1465301513672 352.3668212890625,151.1326141357422 349.2408447265625,153.0234832763672 346.1077880859375,154.8175506591797 342.96881103515625,156.5045623779297 339.8208312988281,158.0804901123047 336.66583251953125,159.53953552246094 333.5028381347656,160.8774871826172 330.329833984375,162.08653259277344 327.1488037109375,163.1625213623047 323.95782470703125,164.1005096435547 320.7578125,164.8936004638672 317.54681396484375,165.5345916748047 314.3248291015625,166.0205535888672 311.09381103515625,166.3435516357422 307.84979248046875,166.50157165527344 304.5958251953125,166.4835662841797 301.32879638671875,166.2894744873047 298.0498046875,165.90953063964844 294.7577819824219,165.34153747558594 293.6408386230469,165.0995330810547 292.5438232421875,164.83055114746094 291.4678039550781,164.5345916748047 290.41180419921875,164.21153259277344 289.3778076171875,163.86058044433594 288.3668212890625,163.48155212402344 287.3787841796875,163.0745086669922 286.4128112792969,162.6415252685547 285.4718017578125,162.1775360107422 284.5548095703125,161.6865692138672 283.66278076171875,161.1665496826172 282.79583740234375,160.61851501464844 277.01580810546875,156.3805389404297 277.8828125,156.9275360107422 278.7747802734375,157.44761657714844 279.69183349609375,157.9385223388672 280.6328125,158.40147399902344 281.5988464355469,158.8365936279297 282.5867919921875,159.2435760498047 283.5977783203125,159.6215057373047 284.6318359375,159.9735565185547 285.68780517578125,160.29661560058594 286.7637939453125,160.5925750732422 287.8608093261719,160.8614959716797 288.9778137207031,161.1035614013672 292.26983642578125,161.6715545654297 295.548828125,162.0515594482422 298.8158264160156,162.2455291748047 302.07080078125,162.26353454589844 305.3138427734375,162.1055145263672 308.5458068847656,161.7815399169922 311.7668151855469,161.29661560058594 314.9768371582031,160.6545867919922 318.17779541015625,159.8614959716797 321.36883544921875,158.92454528808594 324.55084228515625,157.8485565185547 327.7218017578125,156.6395721435547 330.88580322265625,155.3015594482422 334.04083251953125,153.8425750732422 337.1888427734375,152.2665252685547 340.32781982421875,150.5795135498047 343.4608154296875,148.7855682373047 346.5857849121094,146.89451599121094 349.7058410644531,144.9075164794922 352.8178405761719,142.83360290527344 355.9258117675781,140.67662048339844 359.02679443359375,138.4404754638672 362.1238098144531,136.1355438232422 365.21783447265625,133.76451110839844 368.3038024902344,131.3315887451172 371.3878173828125,128.8455047607422 374.46881103515625,126.30955505371094 377.54681396484375,123.7305908203125 380.62078857421875,121.113525390625 383.6928405761719,118.46649169921875 386.7618408203125,115.79156494140625 389.8318176269531,113.09648895263672 " stroke-miterlimit="2.6131" stroke-linejoin="bevel" stroke-width="0.3376" fill="#ED1C24" clip-rule="evenodd" fill-rule="evenodd"/>
   <polygon stroke="#000000" id="svg_12" points="389.8318176269531,113.09648895263672 395.6117858886719,117.3345947265625 392.54278564453125,120.029541015625 389.47283935546875,122.70458984375 386.4007873535156,125.35258483886719 383.32684326171875,127.96952819824219 380.2488098144531,130.54759216308594 377.1688232421875,133.0835418701172 374.0848083496094,135.56956481933594 370.996826171875,138.0015106201172 367.90380859375,140.37351989746094 364.80682373046875,142.6794891357422 361.7058410644531,144.9136199951172 358.59783935546875,147.0715789794922 355.48583984375,149.1465301513672 352.3668212890625,151.1326141357422 349.2408447265625,153.0234832763672 346.1077880859375,154.8175506591797 342.96881103515625,156.5045623779297 339.8208312988281,158.0804901123047 336.66583251953125,159.53953552246094 333.5028381347656,160.8774871826172 330.329833984375,162.08653259277344 327.1488037109375,163.1625213623047 323.95782470703125,164.1005096435547 320.7578125,164.8936004638672 317.54681396484375,165.5345916748047 314.3248291015625,166.0205535888672 311.09381103515625,166.3435516357422 307.84979248046875,166.50157165527344 304.5958251953125,166.4835662841797 301.32879638671875,166.2894744873047 298.0498046875,165.90953063964844 294.7577819824219,165.34153747558594 293.6408386230469,165.0995330810547 292.5438232421875,164.83055114746094 291.4678039550781,164.5345916748047 290.41180419921875,164.21153259277344 289.3778076171875,163.86058044433594 288.3668212890625,163.48155212402344 287.3787841796875,163.0745086669922 286.4128112792969,162.6415252685547 285.4718017578125,162.1775360107422 284.5548095703125,161.6865692138672 283.66278076171875,161.1665496826172 282.79583740234375,160.61851501464844 277.01580810546875,156.3805389404297 277.8828125,156.9275360107422 278.7747802734375,157.44761657714844 279.69183349609375,157.9385223388672 280.6328125,158.40147399902344 281.5988464355469,158.8365936279297 282.5867919921875,159.2435760498047 283.5977783203125,159.6215057373047 284.6318359375,159.9735565185547 285.68780517578125,160.29661560058594 286.7637939453125,160.5925750732422 287.8608093261719,160.8614959716797 288.9778137207031,161.1035614013672 292.26983642578125,161.6715545654297 295.548828125,162.0515594482422 298.8158264160156,162.2455291748047 302.07080078125,162.26353454589844 305.3138427734375,162.1055145263672 308.5458068847656,161.7815399169922 311.7668151855469,161.29661560058594 314.9768371582031,160.6545867919922 318.17779541015625,159.8614959716797 321.36883544921875,158.92454528808594 324.55084228515625,157.8485565185547 327.7218017578125,156.6395721435547 330.88580322265625,155.3015594482422 334.04083251953125,153.8425750732422 337.1888427734375,152.2665252685547 340.32781982421875,150.5795135498047 343.4608154296875,148.7855682373047 346.5857849121094,146.89451599121094 349.7058410644531,144.9075164794922 352.8178405761719,142.83360290527344 355.9258117675781,140.67662048339844 359.02679443359375,138.4404754638672 362.1238098144531,136.1355438232422 365.21783447265625,133.76451110839844 368.3038024902344,131.3315887451172 371.3878173828125,128.8455047607422 374.46881103515625,126.30955505371094 377.54681396484375,123.7305908203125 380.62078857421875,121.113525390625 383.6928405761719,118.46649169921875 386.7618408203125,115.79156494140625 389.8318176269531,113.09648895263672 " stroke-miterlimit="2.6131" stroke-linejoin="bevel" stroke-width="0.3376" fill="#ED1C24" clip-rule="evenodd" fill-rule="evenodd"/>
   <polygon stroke="#000000" id="svg_13" points="279.9378356933594,129.65953063964844 285.71783447265625,133.8975067138672 286.3618469238281,134.3835906982422 286.98382568359375,134.9385223388672 287.84283447265625,135.7535858154297 288.69183349609375,136.5365447998047 289.5338134765625,137.2875213623047 290.37078857421875,138.0065155029297 291.204833984375,138.6915740966797 292.0347900390625,139.3466033935547 292.8668518066406,139.9675750732422 293.6988220214844,140.55650329589844 287.9188232421875,136.3185272216797 287.0867919921875,135.7295379638672 286.25579833984375,135.1075897216797 285.4248046875,134.4535369873047 284.5908203125,133.7684783935547 283.75384521484375,133.0485076904297 282.91082763671875,132.2985076904297 282.0628356933594,131.51560974121094 281.20379638671875,130.6995086669922 280.58184814453125,130.1455535888672 279.9378356933594,129.65953063964844 " stroke-miterlimit="2.6131" stroke-linejoin="bevel" stroke-width="0.3376" fill="#ED1C24" clip-rule="evenodd" fill-rule="evenodd"/>
   <polygon stroke="#000000" id="svg_14" points="367.71978759765625,88.14257049560547 373.50079345703125,92.38054656982422 373.1907958984375,94.88652801513672 372.8178405761719,97.29253387451172 372.3787841796875,99.60259246826172 371.8778076171875,101.81450653076172 371.31280517578125,103.93560028076172 370.6888427734375,105.96453094482422 370.0038146972656,107.90355682373047 369.2608337402344,109.75450897216797 368.4588317871094,111.51952362060547 367.59979248046875,113.19951629638672 366.6848449707031,114.798583984375 365.71783447265625,116.31658935546875 364.69482421875,117.756591796875 363.6198425292969,119.1195068359375 362.4938049316406,120.40753173828125 361.31781005859375,121.62358093261719 360.0918273925781,122.76751708984375 358.8178405761719,123.84147644042969 357.4967956542969,124.84855651855469 356.13079833984375,125.79057312011719 354.71978759765625,126.66752624511719 353.2628173828125,127.48258972167969 351.76483154296875,128.2385711669922 350.22381591796875,128.93650817871094 348.642822265625,129.5765838623047 347.0227966308594,130.1625213623047 345.3648376464844,130.6956024169922 343.66778564453125,131.1794891357422 341.934814453125,131.6125946044922 340.16680908203125,131.9995574951172 338.3648376464844,132.3406219482422 336.52978515625,132.6395721435547 330.74981689453125,128.4005584716797 332.5848388671875,128.1025848388672 334.3868408203125,127.76152038574219 336.1548156738281,127.37455749511719 337.8868408203125,126.94047546386719 339.5848388671875,126.45756530761719 341.2428283691406,125.92454528808594 342.8638000488281,125.33854675292969 344.44378662109375,124.69755554199219 345.9848327636719,124.00053405761719 347.4827880859375,123.24456787109375 348.9388427734375,122.42851257324219 350.34979248046875,121.55255126953125 351.716796875,120.609619140625 353.037841796875,119.60356140136719 354.31182861328125,118.52850341796875 355.5378112792969,117.38554382324219 356.7138366699219,116.16949462890625 357.8408203125,114.881591796875 358.914794921875,113.51854705810547 359.93682861328125,112.07854461669922 360.90582275390625,110.56060028076172 361.81982421875,108.96154022216797 362.67779541015625,107.28057098388672 363.4808349609375,105.51561737060547 364.22283935546875,103.66551971435547 364.9088439941406,101.72649383544922 365.5338134765625,99.69756317138672 366.0968017578125,97.57659149169922 366.59881591796875,95.36357879638672 367.037841796875,93.05455780029297 367.41180419921875,90.64849090576172 367.71978759765625,88.14257049560547 " stroke-miterlimit="2.6131" stroke-linejoin="bevel" stroke-width="0.3376" fill="#ED1C24" clip-rule="evenodd" fill-rule="evenodd"/>
   <path stroke="#000000" id="svg_15" d="m292.566783,136.302615c6.017,-10.606 10.235,-25.273 12.962,-43.305c-2.854,1.289 -6.353,2.836 -11.264,4.949c1.337,-6.547 1.084,-13.297 2.777,-19.642c1.668,-6.251 7.037,-10.348 12.962,-11.6c10.342,-2.186 20.26,-2.884 30.362,-5.754c6.77,-1.924 9.238,1.283 7.157,10.098c-0.903,3.824 -1.354,7.413 -2.643,11.123c-1.796,5.167 -8.522,6.042 -14.185,5.783c-1.988,34.155 -13.382,47.893 -38.128,48.348l0,0zm138.502,-39.113c0.119,9.469 -14.125,9.128 -20.181,1.511c7.076,-6.603 20.075,-9.912 20.181,-1.511l0,0zm-100.319,31.211c10.866,-22.699 17.679,-45.65 19.603,-68.91c6.456,-1.168 12.912,-2.336 19.369,-3.504c4.986,0.61 4.081,7.125 2.334,14.482c2.767,-3.189 4.01,-6.555 5.579,-13.511c0.651,-2.89 3.853,-4.404 6.789,-4.709c5.481,-0.568 10.789,-1.382 16.265,-2.002c4.921,-0.557 4.854,2.084 0.869,5.881c-5.454,5.199 -9.345,10.39 -14.334,16.444c1.226,12.639 6.554,20.128 14.93,23.808c6.117,-4.928 14.631,-9.625 21.872,-9.958c7.329,-0.336 13.019,3.682 11.294,13.019c-4.229,22.903 -26.66,23.041 -45.487,13.655c-32.718,28.842 -65.675,55.111 -100.854,48.007c-12.024,-2.428 -20.704,-9.491 -23.127,-21.86c-1.762,-8.994 8.833,-14.832 15.354,-8.543c9.202,8.874 16.632,12.243 31.577,9.848c29.372,-4.709 50.917,-17.145 70.943,-31.769c-5.788,-5.214 -11.61,-11.928 -16.003,-20.636c-2.941,27.254 -17.228,37.309 -36.973,40.258l0,0z" stroke-miterlimit="2.6131" stroke-linejoin="bevel" stroke-width="0.3376" fill="#FFFFFF" clip-rule="evenodd" fill-rule="evenodd"/>
  </g>
  <text filter="url(#svg_21_blur)" stroke="#000000" transform="matrix(1.6762838137746954,0,0,2.3468528919703857,-165.88255238323237,-294.3225767059384) " font-weight="bold" font-style="italic" xml:space="preserve" text-anchor="start" font-family="'Simonetta', serif" font-size="44" id="svg_21" y="182.790168" x="126.262856" stroke-opacity="null" stroke-width="0" fill="#333333">TorTiki.</text>
 </g>
</svg>