<svg width="610" height="180" xmlns="http://www.w3.org/2000/svg">
 <!-- Created with Method Draw - http://github.com/duopixel/Method-Draw/ -->
 <defs>
  <filter height="200%" width="200%" y="-50%" x="-50%" id="svg_1_blur">
   <feGaussianBlur stdDeviation="0" in="SourceGraphic"/>
  </filter>
 </defs>
 <g>
  <title>background</title>
  <rect fill="none" id="canvas_background" height="182" width="612" y="-1" x="-1"/>
  <g display="none" id="canvasGrid">
   <rect fill="url(#gridpattern)" stroke-width="0" y="7" x="7" height="187" width="623" id="svg_3"/>
  </g>
 </g>
 <g>
  <title>Layer 1</title>
  <text style="cursor: move;" stroke="#000" transform="matrix(3.250344953656874,0,0,3.250344953656874,-46.297918200151315,-969.3363198192302) " font-weight="bold" xml:space="preserve" text-anchor="start" font-family="'Palatino Linotype', 'Book Antiqua', Palatino, serif" font-size="24" id="svg_2" y="338.840467" x="21.328509" stroke-opacity="null" stroke-width="0" fill="#4c4c4c">TORTIK.GA</text>
  <path filter="url(#svg_1_blur)" stroke="#ff7f00" id="svg_1" d="m555.46098,35.457076c-4.680614,-1.122562 -9.241895,-1.350659 -7.795824,4.972344c0.139375,3.546188 -1.771899,9.785663 -0.18453,11.688495c2.476115,-1.125181 4.905094,-2.341036 7.335447,-3.551749c0.214969,-4.369697 0.429938,-8.739393 0.644907,-13.10909zm-15.05628,16.650135c0.503703,-8.130187 1.962795,-16.231177 1.394476,-24.429887c-1.601123,-8.625995 -13.212982,-13.114951 -20.012064,-7.982362c-7.498042,4.549764 -6.280442,16.858649 1.689918,21.043902c5.563771,3.892495 11.05732,7.957805 16.92767,11.368347zm28.343846,19.451113c7.916467,3.999741 18.004599,-1.886906 17.770004,-10.48327c0.500803,-8.665934 -9.933425,-16.035115 -17.87297,-12.252952c-6.630919,2.914242 -12.993823,6.342292 -19.455464,9.573799c6.249865,4.739728 12.854765,9.085902 19.55843,13.162423l0,0zm7.043168,15.597044c3.889746,-0.39784 15.168058,3.658469 9.215263,-3.242276c-1.475986,-1.707472 -2.070385,-5.36402 -4.106066,-5.849825c-6.33788,1.780889 -13.406155,0.560367 -18.888947,-3.519674c-1.34105,-0.402737 -6.398602,-5.093105 -5.542477,-3.071011c2.527891,4.860116 4.829552,9.83826 7.658846,14.548021c3.879987,0.491376 7.775259,0.776542 11.663385,1.134759l-0.000004,0.000006zm-57.563072,-37.207907c2.920322,0.260317 5.840648,0.520628 8.760959,0.780937c-6.287584,-4.698405 -14.322126,-8.834542 -15.87353,-17.118465c-0.388081,-2.408529 -0.575027,-4.992011 -3.746787,-4.43477c-3.314569,-0.049135 -11.423486,-3.285764 -7.224277,2.229509c2.939211,5.863494 5.801206,11.769349 8.990583,17.515222c3.010587,0.533168 6.062639,0.719045 9.093054,1.027577l-0.000002,-0.00001zm22.264449,34.182556c4.175366,-0.240865 12.199518,2.265548 13.948061,0.159785c-3.923296,-7.614361 -7.404195,-15.492195 -11.971398,-22.774079c-1.694936,-2.323785 -4.353078,-2.308968 -6.887614,-2.448756c-7.374367,-0.591328 -14.750537,-1.456642 -22.129279,-1.667377c4.067759,8.531405 8.295978,17.000357 12.671132,25.395206c4.7864,0.503426 9.579144,0.899444 14.369094,1.335227l0.000004,-0.000006zm23.18703,25.242323c4.014978,0.218523 8.029958,0.437055 12.044962,0.655578c3.856182,-5.753409 7.833784,-11.4282 11.546836,-17.275463c-7.833011,-0.840888 -15.687256,-1.473669 -23.535167,-1.909079c-4.612504,5.504517 -8.370124,11.729693 -12.258841,17.76707c4.064746,0.342674 8.135505,0.522079 12.20221,0.761894zm-64.552833,-48.915907c3.597142,-4.694642 7.992368,-9.84702 2.766142,-15.492008c-2.7444,-4.387113 -5.166875,-12.511162 -8.216275,-14.508c-3.820317,5.447243 -7.497472,10.992769 -11.23423,16.497227c3.467397,7.347918 6.720303,14.791685 10.445767,22.02721c2.494278,-2.453031 4.15561,-5.717882 6.238596,-8.524429zm28.651035,46.967377c4.813338,0.260729 9.626674,0.521463 14.440013,0.782192c3.989345,-5.934106 8.258012,-11.691763 11.977254,-17.799236c-4.456632,-1.518874 -10.904343,-1.258918 -16.200488,-1.970537c-4.086186,-0.354603 -8.1724,-0.7092 -12.258596,-1.063802c-4.218031,6.364322 -8.720992,12.552807 -12.614695,19.122777c4.881536,0.428864 9.771362,0.64219 14.656506,0.928602l0.000006,0.000004zm-12.105709,-13.030047c2.138532,-3.162731 4.277067,-6.325466 6.415596,-9.488191c-4.292339,-8.465747 -8.538211,-16.952811 -12.887028,-25.39278c-4.471084,5.790004 -8.357863,12.008232 -12.51195,18.027798c4.107246,8.736189 8.067764,17.535905 12.353032,26.196162c2.401755,-2.968422 4.450835,-6.211953 6.63035,-9.342989zm31.469351,39.805497c4.000166,0.121264 8.000341,0.242527 12.000518,0.3638c3.683858,-5.70005 7.941486,-11.122977 11.110582,-17.080706c-7.961827,-0.780173 -16.016124,-0.985424 -24.018368,-1.482052c-3.795054,5.908833 -8.192287,11.50752 -11.459085,17.701131c4.121269,0.274307 8.245004,0.350918 12.366353,0.497827zm-65.098973,-48.609719c1.969976,-2.962587 3.939932,-5.925205 5.9099,-8.887791c-3.460621,-7.354684 -6.770491,-14.775187 -10.409549,-22.053345c-4.185497,5.39775 -7.8087,11.207782 -11.688665,16.82681c3.35487,7.620952 6.578248,15.294832 10.08893,22.854061c2.210466,-2.780559 4.09514,-5.81031 6.099384,-8.739735zm28.56949,47.540177c4.85201,0.1529 9.70402,0.3058 14.556027,0.458706c4.039105,-5.990563 8.215799,-11.891848 12.092207,-17.989437c-9.66526,-0.62404 -19.334696,-1.142105 -29.001521,-1.554754c-4.67913,5.25775 -8.208041,11.554584 -12.159656,17.396302c1.28917,2.658695 10.380368,0.886086 14.512947,1.689177l-0.000004,0.000006zm-12.769208,-12.367693c2.379334,-4.405063 8.486961,-8.740163 4.049852,-14.071791c-3.300234,-7.113637 -6.553368,-14.248722 -10.002664,-21.29974c-4.65302,5.110239 -7.784596,11.594081 -12.293951,16.902461c3.620666,9.218181 7.556322,18.351328 11.76945,27.34653c2.5653,-2.572701 4.329954,-5.942025 6.477316,-8.877466l-0.000003,0.000006zm-22.911244,-17.081618c-4.699596,-10.786841 -9.399191,-21.573671 -14.098789,-32.360497c10.905765,-16.10871 21.570559,-32.38601 32.765881,-48.294518c5.755584,0.36985 11.48104,1.354132 17.221878,2.004651c2.300258,-9.305933 12.377367,-15.690901 22.207582,-13.109534c8.414995,1.905836 14.85745,9.676878 15.406503,18.014312c4.100019,0.581991 8.200048,1.16399 12.300072,1.745985c2.074709,3.612968 4.149439,7.225943 6.224141,10.838908c7.828764,-2.004455 17.372246,0.283736 22.069973,7.550191c6.128638,7.997889 4.333149,19.953116 -3.537914,25.475209c2.722465,5.181736 6.156478,10.114387 8.182373,15.56098c-10.658224,16.137008 -21.663836,32.042567 -32.51215,48.052472c-23.341144,-0.772883 -46.682772,-0.973137 -70.024984,-2.31743c-4.838462,-3.27341 -5.638774,-11.091666 -8.760242,-16.152753c-2.496869,-5.663408 -4.972145,-11.335136 -7.444345,-17.007982l0.000021,0.000006z" stroke-width="1.5" fill="#56aaff"/>
  <path id="svg_15" d="m344.294118,53.411768" opacity="0.5" fill-opacity="null" stroke-width="1.5" stroke="#00ff00" fill="#56aaff"/>
  <path stroke="#ff7f00" id="svg_18" d="m515.38695,58.590635l11.560471,23.653911l27.188532,2.387093l-12.202727,-23.219894l-26.546276,-2.821109z" fill-opacity="null" stroke-width="1.5" fill="#56aaff"/>
 </g>
</svg>