<svg xmlns="http://www.w3.org/2000/svg" xmlns:xlink="http://www.w3.org/1999/xlink"><defs><style type="text/css">
   <![CDATA[
    .fil5 {fill:none}
    .fil1 {fill:#013668}
    .fil2 {fill:#80CBC4}
    .fil3 {fill:#F6FFFD}
    .fil4 {fill:#FAC23C}
    .fil0 {fill:#013668;fill-rule:nonzero}
   ]]>
  </style><linearGradient id="gradient1" x1="90.5586%" x2="3.3577%" y1="10.5087%" y2="95.4155%"><stop offset="1%" stop-color="#4845a2" stop-opacity="1"/><stop offset="30%" stop-color="#a844a1" stop-opacity="1"/><stop offset="60%" stop-color="#d7243e" stop-opacity="1"/><stop offset="87%" stop-color="#f9a326" stop-opacity="1"/><stop offset="99%" stop-color="#f9dd26" stop-opacity="1"/></linearGradient><linearGradient id="gradient2" x1="126.7549%" x2="-37.7767%" y1="-24.7471%" y2="135.473%"><stop offset="1%" stop-color="#4845a2" stop-opacity="1"/><stop offset="30%" stop-color="#a844a1" stop-opacity="1"/><stop offset="60%" stop-color="#d7243e" stop-opacity="1"/><stop offset="87%" stop-color="#f9a326" stop-opacity="1"/><stop offset="99%" stop-color="#f9dd26" stop-opacity="1"/></linearGradient><linearGradient id="gradient3" x1="149.8345%" x2="-468.391%" y1="-47.2052%" y2="554.807%"><stop offset="1%" stop-color="#4845a2" stop-opacity="1"/><stop offset="30%" stop-color="#a844a1" stop-opacity="1"/><stop offset="60%" stop-color="#d7243e" stop-opacity="1"/><stop offset="87%" stop-color="#f9a326" stop-opacity="1"/><stop offset="99%" stop-color="#f9dd26" stop-opacity="1"/></linearGradient></defs><symbol id="icon-face_smile" viewBox="0 0 6827 6827"><g id="Layer_x0020_1"><g id="_271572488"><path class="fil0" d="M3413 853c707,0 1347,287 1810,750 463,463 750,1103 750,1810 0,707 -287,1347 -750,1810 -463,463 -1103,750 -1810,750 -707,0 -1347,-287 -1810,-750 -463,-463 -750,-1103 -750,-1810 0,-707 287,-1347 750,-1810 463,-463 1103,-750 1810,-750zm1697 863c-434,-434 -1034,-703 -1697,-703 -663,0 -1263,269 -1697,703 -434,434 -703,1034 -703,1697 0,663 269,1263 703,1697 434,434 1034,703 1697,703 663,0 1263,-269 1697,-703 434,-434 703,-1034 703,-1697 0,-663 -269,-1263 -703,-1697z"/><path class="fil0" d="M4920 4183c-144,262 -385,564 -684,780 -242,174 -522,293 -822,293 -300,0 -581,-119 -822,-293 -302,-218 -544,-523 -688,-786 -21,-39 -7,-87 32,-108 12,-7 25,-10 38,-10l0 0 2880 0c44,0 80,36 80,80 0,16 -5,32 -13,44zm-777 651c237,-171 435,-400 571,-615l-2601 0c136,215 334,444 571,615 216,156 466,263 729,263 264,0 513,-107 729,-263z"/><path class="fil0" d="M2399 2037c134,0 252,80 335,208 77,119 124,280 124,458 0,177 -47,339 -124,458 -83,129 -202,208 -335,208 -134,0 -252,-80 -335,-208 -77,-119 -124,-280 -124,-458 0,-177 47,-339 124,-458 83,-129 202,-208 335,-208zm201 295c-54,-83 -125,-135 -201,-135 -76,0 -147,52 -201,135 -61,93 -98,224 -98,371 0,146 37,277 98,371 54,83 125,135 201,135 76,0 147,-52 201,-135 61,-93 98,-224 98,-371 0,-146 -37,-277 -98,-371z"/><path class="fil0" d="M4427 2037c134,0 252,80 335,208 77,119 124,280 124,458 0,177 -47,339 -124,458 -83,129 -202,208 -335,208 -134,0 -252,-80 -335,-208 -77,-119 -124,-280 -124,-458 0,-177 47,-339 124,-458 83,-129 202,-208 335,-208zm201 295c-54,-83 -125,-135 -201,-135 -76,0 -147,52 -201,135 -61,93 -98,224 -98,371 0,146 37,277 98,371 54,83 125,135 201,135 76,0 147,-52 201,-135 61,-93 98,-224 98,-371 0,-146 -37,-277 -98,-371z"/><ellipse class="fil1" cx="2435" cy="2873" rx="139" ry="193"/><ellipse class="fil1" cx="4457" cy="2873" rx="139" ry="193"/></g><path class="fil2" d="M3968 2703c0,-177 47,-339 124,-458 83,-129 202,-208 335,-208 134,0 252,80 335,208 77,119 124,280 124,458 0,177 -47,339 -124,458 -83,129 -202,208 -335,208 -134,0 -252,-80 -335,-208 -77,-119 -124,-280 -124,-458zm1143 -986c-434,-434 -1034,-703 -1697,-703 -663,0 -1263,269 -1697,703 -434,434 -703,1034 -703,1697 0,663 269,1263 703,1697 434,434 1034,703 1697,703 663,0 1263,-269 1697,-703 434,-434 703,-1034 703,-1697 0,-663 -269,-1263 -703,-1697zm-3137 2343l2880 0c44,0 80,36 80,80 0,16 -5,32 -13,44 -144,262 -385,564 -684,780 -242,174 -522,293 -822,293 -300,0 -581,-119 -822,-293 -302,-218 -544,-523 -688,-786 -21,-39 -7,-87 32,-108 12,-7 25,-10 38,-10l0 0zm761 -1814c77,119 124,280 124,458 0,177 -47,339 -124,458 -83,129 -202,208 -335,208 -134,0 -252,-80 -335,-208 -77,-119 -124,-280 -124,-458 0,-177 47,-339 124,-458 83,-129 202,-208 335,-208 134,0 252,80 335,208z"/><path class="fil3" d="M2699 2703c0,-146 -37,-277 -98,-371 -54,-83 -125,-135 -201,-135 -76,0 -147,52 -201,135 -61,93 -98,224 -98,371 0,146 37,277 98,371 54,83 125,135 201,135 76,0 147,-52 201,-135 61,-93 98,-224 98,-371zm-264 -22c77,0 139,86 139,193 0,106 -62,193 -139,193 -77,0 -139,-86 -139,-193 0,-106 62,-193 139,-193z"/><path class="fil3" d="M4226 2332c-61,93 -98,224 -98,371 0,146 37,277 98,371 54,83 125,135 201,135 76,0 147,-52 201,-135 61,-93 98,-224 98,-371 0,-146 -37,-277 -98,-371 -54,-83 -125,-135 -201,-135 -76,0 -147,52 -201,135zm231 349c77,0 139,86 139,193 0,106 -62,193 -139,193 -77,0 -139,-86 -139,-193 0,-106 62,-193 139,-193z"/><path class="fil4" d="M4714 4219l-2601 0c136,215 334,444 571,615 216,156 466,263 729,263 264,0 513,-107 729,-263 237,-171 435,-400 571,-615z"/></g><rect class="fil5" height="6827" width="6827"/></symbol><symbol id="icon-fb" viewBox="0 0 512 512"><linearGradient gradientTransform="matrix(1 0 0 -1 -41.66 349.04)" gradientUnits="userSpaceOnUse"><stop offset="0" style="stop-color:#3B5998"/><stop offset="1" style="stop-color:#336699"/></linearGradient><path d="M277.41,400.519V272.058h42.82l10.705-53.525H277.41v-21.41  c0-21.41,10.726-32.115,32.115-32.115h21.41v-53.525c-10.705,0-23.98,0-42.82,0c-39.341,0-64.23,30.841-64.23,74.935v32.115h-42.82  v53.525h42.82v128.46L277.41,400.519L277.41,400.519z"/></symbol><symbol id="icon-gps" viewBox="0 0 58 58">
<ellipse style="fill:#23A24D;" cx="29" cy="50" rx="29" ry="8"/>
<path style="fill:#EBBA16;" d="M41.676,5.324L41.676,5.324c-7.098-7.098-18.607-7.098-25.706,0h0
	C9.574,11.72,8.855,23.763,14.282,31l14.541,21l14.541-21C48.792,23.763,48.072,11.72,41.676,5.324z M29,24c-3.314,0-6-2.686-6-6
	s2.686-6,6-6s6,2.686,6,6S32.314,24,29,24z"/>
<g>
</g>
<g>
</g>
<g>
</g>
<g>
</g>
<g>
</g>
<g>
</g>
<g>
</g>
<g>
</g>
<g>
</g>
<g>
</g>
<g>
</g>
<g>
</g>
<g>
</g>
<g>
</g>
<g>
</g>
</symbol><symbol id="icon-insta" viewBox="-200 -200 912 912"><g id="Camada%201"><g><g><path d="M 361.749 512 L 150.2638 512 C 67.4115 512 0 444.5925 0 361.7377 L 0 150.2687 C 0 67.4118 67.4115 0 150.2638 0 L 361.749 0 C 444.5929 0 512 67.4118 512 150.2687 L 512 361.7377 C 512 444.5925 444.5929 512 361.749 512 ZM 150.2638 11.7504 C 73.8918 11.7504 11.7525 73.8878 11.7525 150.2687 L 11.7525 361.7377 C 11.7525 438.1122 73.8918 500.2496 150.2638 500.2496 L 361.749 500.2496 C 438.1169 500.2496 500.2475 438.1122 500.2475 361.7377 L 500.2475 150.2687 C 500.2475 73.8878 438.1169 11.7504 361.749 11.7504 L 150.2638 11.7504 ZM 364.1908 467.1692 L 147.8305 467.1692 C 91.719 467.1692 46.0751 421.5378 46.0751 365.4496 L 46.0751 149.0456 C 46.0751 92.9553 91.719 47.3219 147.8305 47.3219 L 364.1908 47.3219 C 420.2938 47.3219 465.9292 92.9553 465.9292 149.0456 L 465.9292 365.4496 C 465.9292 421.5378 420.2938 467.1692 364.1908 467.1692 ZM 147.8305 59.0701 C 98.1993 59.0701 57.8276 99.4356 57.8276 149.0456 L 57.8276 365.4496 C 57.8276 415.0597 98.1993 455.4209 147.8305 455.4209 L 364.1908 455.4209 C 413.8135 455.4209 454.1896 415.0597 454.1896 365.4496 L 454.1896 149.0456 C 454.1896 99.4356 413.8135 59.0701 364.1908 59.0701 L 147.8305 59.0701 Z" fill="url(#gradient1)"/></g><g><path d="M 256.0064 392.9228 C 181.1925 392.9228 120.3297 332.0576 120.3297 257.2434 C 120.3297 182.4484 181.1925 121.5982 256.0064 121.5982 C 330.8203 121.5982 391.6831 182.4484 391.6831 257.2434 C 391.6831 332.0576 330.8203 392.9228 256.0064 392.9228 ZM 256.0064 133.3464 C 187.6728 133.3464 132.0737 188.9245 132.0737 257.2434 C 132.0737 325.5793 187.6728 381.1724 256.0064 381.1724 C 324.3442 381.1724 379.9433 325.5793 379.9433 257.2434 C 379.9433 188.9245 324.3442 133.3464 256.0064 133.3464 ZM 256.0064 347.2658 C 206.3752 347.2658 166.0078 306.8811 166.0078 257.2434 C 166.0078 207.6142 206.3752 167.2379 256.0064 167.2379 C 305.6461 167.2379 346.0306 207.6142 346.0306 257.2434 C 346.0306 306.8811 305.6461 347.2658 256.0064 347.2658 ZM 256.0064 178.9884 C 212.8556 178.9884 177.756 214.0923 177.756 257.2434 C 177.756 300.403 212.8556 335.5154 256.0064 335.5154 C 299.1658 335.5154 334.2824 300.403 334.2824 257.2434 C 334.2824 214.0923 299.1658 178.9884 256.0064 178.9884 Z" fill="url(#gradient2)"/></g><g><path d="M 390.1548 158.6188 C 370.2229 158.6188 354.0093 142.4202 354.0093 122.5096 C 354.0093 102.6032 370.2229 86.4066 390.1548 86.4066 C 410.0482 86.4066 426.2277 102.6032 426.2277 122.5096 C 426.2277 142.4202 410.0482 158.6188 390.1548 158.6188 ZM 390.1548 98.1571 C 376.6989 98.1571 365.7618 109.0815 365.7618 122.5096 C 365.7618 135.942 376.6989 146.8706 390.1548 146.8706 C 403.568 146.8706 414.4795 135.942 414.4795 122.5096 C 414.4795 109.0815 403.568 98.1571 390.1548 98.1571 Z" fill="url(#gradient3)"/></g></g></g></symbol><symbol id="icon-time" viewBox="0 0 58 58">
<circle style="fill:#48A0DC;" cx="29" cy="29" r="29"/>
<path style="fill:#EFCE4A;" d="M0,29c0,0.295,0.013,0.586,0.022,0.879H29V0C12.984,0,0,12.984,0,29z"/>
<path style="fill:#4393BF;" d="M29,6.879c-0.552,0-1,0.447-1,1v23H13c-0.552,0-1,0.447-1,1s0.448,1,1,1h16c0.552,0,1-0.447,1-1v-24
	C30,7.326,29.552,6.879,29,6.879z"/>
<path style="fill:#424A60;" d="M29,5c-0.552,0-1,0.447-1,1v23H13c-0.552,0-1,0.447-1,1s0.448,1,1,1h16c0.552,0,1-0.447,1-1V6
	C30,5.447,29.552,5,29,5z"/>
<g>
</g>
<g>
</g>
<g>
</g>
<g>
</g>
<g>
</g>
<g>
</g>
<g>
</g>
<g>
</g>
<g>
</g>
<g>
</g>
<g>
</g>
<g>
</g>
<g>
</g>
<g>
</g>
<g>
</g>
</symbol><symbol id="icon-users" viewBox="0 0 58 58">
<path style="fill:#3083C9;" d="M39.566,45.283l-9.552-4.776C28.78,39.89,28,38.628,28,37.248V33.5
	c0.268-0.305,0.576-0.698,0.904-1.162c1.302-1.838,2.286-3.861,2.969-5.984C33.098,25.977,34,24.845,34,23.5v-4
	c0-0.88-0.391-1.667-1-2.217V11.5c0,0,1.187-9-11-9c-12.188,0-11,9-11,9v5.783c-0.609,0.55-1,1.337-1,2.217v4
	c0,1.054,0.554,1.981,1.383,2.517C12.382,30.369,15,33.5,15,33.5v3.655c0,1.333-0.728,2.56-1.899,3.198L4.18,45.22
	C1.603,46.625,0,49.326,0,52.261V55.5h44v-3.043C44,49.419,42.283,46.642,39.566,45.283z"/>
<path style="fill:#CB465F;" d="M54.07,46.444l-9.774-4.233c-0.535-0.267-0.971-0.836-1.277-1.453
	c-0.277-0.557,0.136-1.212,0.758-1.212h6.883c0,0,2.524,0.242,4.471-0.594c1.14-0.49,1.533-1.921,0.82-2.936
	c-2.085-2.969-6.396-9.958-6.535-17.177c0,0-0.239-11.112-11.202-11.202c-2.187,0.018-3.97,0.476-5.438,1.188
	C33.152,10.324,33,11.5,33,11.5v5.783c0.609,0.55,1,1.337,1,2.217v4c0,1.345-0.902,2.477-2.127,2.854
	c-0.683,2.122-1.667,4.145-2.969,5.984C28.576,32.802,28.268,33.195,28,33.5v3.748c0,0.853,0.299,1.659,0.818,2.297h2.751
	c0.687,0,0.99,0.868,0.451,1.293c-0.186,0.147-0.364,0.283-0.53,0.406l8.077,4.038C42.283,46.642,44,49.419,44,52.457V55.5h14
	v-2.697C58,50.11,56.479,47.648,54.07,46.444z"/>
<g>
</g>
<g>
</g>
<g>
</g>
<g>
</g>
<g>
</g>
<g>
</g>
<g>
</g>
<g>
</g>
<g>
</g>
<g>
</g>
<g>
</g>
<g>
</g>
<g>
</g>
<g>
</g>
<g>
</g>
</symbol></svg>